<?xml version="1.0" standalone="no"?><!DOCTYPE svg PUBLIC "-//W3C//DTD SVG 1.1//EN" "http://www.w3.org/Graphics/SVG/1.1/DTD/svg11.dtd"><svg t="1501684782288" class="icon" style="" viewBox="0 0 1024 1024" version="1.1" xmlns="http://www.w3.org/2000/svg" p-id="4192" xmlns:xlink="http://www.w3.org/1999/xlink" width="32" height="32"><defs><style type="text/css"></style></defs><path d="M511.992325 0.607844c-282.439674 0-511.397273 228.957599-511.397273 511.38704 0 282.443767 228.957599 511.398296 511.397273 511.398296 282.454 0 511.412622-228.954529 511.412622-511.398296C1023.404947 229.564419 794.446325 0.607844 511.992325 0.607844zM511.992325 984.058312C251.276419 984.058312 39.92992 772.72921 39.92992 511.994883 39.92992 251.28614 251.274372 39.941688 511.992325 39.941688c260.708743 0 472.071615 211.344452 472.071615 472.053196C984.065987 772.72921 772.703115 984.058312 511.992325 984.058312z" p-id="4193"></path><path d="M820.737108 540.163433c0-22.422685-3.603061-43.992957-10.233062-64.165392l0-95.750761c0-11.712763-9.371438-21.221324-20.965497-21.221324L712.641181 359.025956l0.714268 1.235131c-27.999704-14.942317-59.903322-23.413246-93.770663-23.413246-34.171264 0-66.345034 8.622378-94.525863 23.814382l1.195222-2.065032L377.94126 358.597191l0-49.116651c0-16.010649-12.860912-28.979008-28.680203-28.979008l-56.71163 0c-15.820314 0-28.653597 12.969383-28.653597 28.979008l0 49.116651-39.667441 0c-11.594059 0-20.964474 9.508561-20.964474 21.221324L203.263915 699.67538c0 11.711739 9.370415 21.221324 20.964474 21.221324l303.103296 0c27.633361 14.439874 58.996672 22.602787 92.252077 22.602787 32.929993 0 64.010873-7.998161 91.443665-22.177092l78.509075 0c11.594059 0 20.965497-9.509585 20.965497-21.221324l0-95.760994C817.134047 584.1656 820.737108 562.590212 820.737108 540.163433zM760.657778 388.69979c9.825786 0 17.767666 8.058536 17.767666 17.984606l0 8.731872c-7.41897-9.637498-15.677051-18.578124-24.665773-26.716478L760.657778 388.69979zM288.021298 324.207963c0-9.794064 7.850805-17.727757 17.528212-17.727757l30.720675 0c9.677407 0 17.545608 7.933693 17.545608 17.727757l0 34.390251-65.793472 0L288.021298 324.207963 288.021298 324.207963zM253.108137 691.224918c-9.825786 0-17.765619-8.060583-17.765619-17.98563l0-266.980587c0-9.92607 7.941879-17.984606 17.765619-17.984606l232.774531 0c-41.380456 37.240159-67.451228 91.481528-67.451228 151.889339 0 59.96165 25.672706 113.844861 66.503647 151.059438L253.108137 691.222871 253.108137 691.224918zM452.767456 541.140691c0-93.127004 74.68498-168.621419 166.82654-168.621419 92.139513 0 166.824493 75.492368 166.824493 168.621419 0 93.1444-74.68498 168.637792-166.824493 168.637792C527.452435 709.776436 452.767456 634.285091 452.767456 541.140691zM778.425444 673.664983c0 9.925047-7.943926 17.983583-17.767666 17.983583l-6.901177 0c8.987698-8.140401 17.247826-17.080004 24.668843-26.721595L778.425444 673.664983z" p-id="4194"></path><path d="M619.579669 403.695319c-74.329892 0-134.584208 60.929698-134.584208 136.054699 0 75.143421 60.254316 136.053676 134.584208 136.053676s134.604674-60.910255 134.604674-136.053676C754.184343 464.625016 693.907515 403.695319 619.579669 403.695319zM619.580692 662.6143c-67.12684 0-121.5391-55.004755-121.5391-122.864282 0-67.842131 54.413284-122.866329 121.5391-122.866329 67.124793 0 121.555473 55.024198 121.555473 122.866329C741.137189 607.609545 686.704462 662.6143 619.580692 662.6143z" p-id="4195"></path><path d="M314.084906 435.313433l-9.453303 0c-6.78145 0-12.278651 5.498224-12.278651 12.279674L292.352953 630.244055c0 6.78145 5.497201 12.279674 12.278651 12.279674l9.453303 0c6.78145 0 12.279674-5.498224 12.279674-12.279674L326.364581 447.593108C326.364581 440.811658 320.866357 435.313433 314.084906 435.313433z" p-id="4196"></path></svg>