<?xml version="1.0" standalone="no"?><!DOCTYPE svg PUBLIC "-//W3C//DTD SVG 1.1//EN" "http://www.w3.org/Graphics/SVG/1.1/DTD/svg11.dtd"><svg t="1501684735986" class="icon" style="" viewBox="0 0 1024 1024" version="1.1" xmlns="http://www.w3.org/2000/svg" p-id="3506" xmlns:xlink="http://www.w3.org/1999/xlink" width="32" height="32"><defs><style type="text/css"></style></defs><path d="M466.463875 235.45758m-84.318577 0a82.4 82.4 0 1 0 168.637154 0 82.4 82.4 0 1 0-168.637154 0Z" p-id="3507"></path><path d="M883.04267 326.939143c-11.153792-12.688718-30.493854-14.018987-43.284901-2.865194-3.376836 2.967523-5.935045 6.446687-7.674628 10.232837-5.321075 1.944239-12.177076 4.297792-18.112122 6.344359-26.912361 9.209553-62.215649 21.284301-93.835115 42.261617-33.461377-17.088838-90.151294-48.503647-108.979714-65.797142-6.242031-5.730389-14.223643-8.390926-22.102928-8.083941-0.204657-0.409313-0.306985-0.61397-0.306985-0.61397-1.330269 0.306985-2.558209 0.716299-3.888478 1.023284-1.739582 0.306985-3.479165 0.818627-5.116419 1.432597-63.545918 17.191166-118.496253 33.052064-147.762166 44.819826-7.776956 2.660538-15.144599 6.344359-21.591286 9.618867-15.144599 7.674628-33.461377 18.21445-51.266513 28.447287-14.837614 8.493255-35.405616 20.465674-47.68502 26.400719-3.479165-3.069851-8.902568-8.288598-16.474868-16.986509-11.460777-12.995703-24.251824-29.572899-36.735885-45.638453-27.01469-34.791646-45.945438-58.531828-63.136604-71.527531l11.358449-12.381733c2.251224-2.455881 2.762866-6.037374 1.432597-8.493255l114.812431-108.877386c9.823524 8.902568 22.819227 13.20036 36.838213 13.20036 21.284301 0 45.126811-9.721195 64.978515-28.549615 34.893974-33.052064 44.103528-81.555711 20.465674-108.263416-10.02818-11.358449-24.558809-17.088838-40.726691-17.088838-21.284301 0-45.126811 9.721195-64.978515 28.549615-33.052064 31.41481-42.977915 76.746278-23.740182 104.170281L200.819426 256.946537c-2.251224-2.046567-5.935045-1.944239-8.80024 0.409313l-20.772659 17.395823c-2.762866-0.511642-5.525732-0.716299-8.288598-0.61397-12.279404 0.204657-23.433197 6.242031-30.698511 16.372539-4.604777 6.446687-6.344359 14.223643-5.423404 21.591286l-1.023284 0.818627c-7.265314 6.139702-10.437494 14.735285-6.753672 18.930748l9.823524 11.153792c3.78615 4.195463 12.381733 1.637254 18.726092-5.423404l0-0.102328c4.809433 1.534926 9.823524 1.944239 14.735285 1.125612 12.279404 11.460777 33.666034 38.987109 47.275707 56.587589 33.768362 43.591886 56.689917 71.936844 78.792845 83.602278 2.558209 1.739582 5.321075 3.069851 8.288598 4.093135 3.683821 1.125612 7.265314 1.739582 10.949136 1.739582 10.437494 0 21.795943-4.707105 37.349855-12.791046 12.893375-6.651344 28.344959-15.451584 44.615169-24.865794 16.577196-9.618867 42.466274-24.45648 56.382932-30.800839 1.22794 0.306985 2.455881 0.511642 3.78615 0.716299 0.306985 0 0.511642 0 0.716299 0.102328 5.525732 9.721195 10.232837 19.544719 12.688718 28.037973 9.004897 31.721795 11.767763 138.961927 16.372539 154.822824 0.306985 0.920955 1.125612 1.637254 2.353553 2.251224 0.102328 44.717498-8.18627 101.919057-16.270211 140.906166-14.325972 15.04227-51.778155 54.745678-88.411712 95.779354-27.424003 30.698511-49.219946 56.280604-64.569202 76.029979-28.549615 36.735885-36.019586 53.108424-31.824123 70.29959 3.376836 14.018987 15.963226 23.433197 29.777556 23.433197 2.353553 0 4.809433-0.306985 7.469971-0.920955 12.893375-3.172179 21.898271-14.121315 23.22854-26.707705 3.683821-7.060658 19.851704-32.335765 89.741981-110.002998-3.479165 8.80024-4.40012 17.191166-3.172179 25.377436 2.353553 15.04227 15.451584 25.889078 30.289198 25.889078 1.534926 0 3.172179-0.102328 4.911762-0.511642 14.939942-2.353553 25.684421-15.144599 25.889078-29.879884 2.762866-4.911762 16.167882-23.84251 73.47177-65.387829 36.121915-26.196063 71.015889-47.68502 71.322874-47.889677 8.493255-5.321075 14.018987-14.4283 14.530629-24.45648 0.204657-3.78615 5.01409-93.118817-8.083941-174.265214 2.251224-0.511642 3.581493-0.818627 3.581493-0.818627s-4.093135-93.323474-10.846807-149.911062c-1.023284-8.80024-2.865194-17.805136-5.116419-26.707705 39.601079 23.330868 81.351054 43.694214 81.965024 44.103528 4.195463 1.944239 8.697911 2.967523 13.20036 2.967523 6.856001 0 13.712002-2.353553 19.44239-6.856001 26.810033-21.693614 64.159888-34.484661 91.379235-43.796542 11.051464-3.78615 20.670331-7.060658 28.447287-10.539822 6.446687-2.865194 23.84251-10.539822 28.651944-28.651944C894.094134 348.121115 891.126611 336.251024 883.04267 326.939143zM321.976217 103.249325c3.274508-17.395823 13.098031-34.586989 27.730988-48.401319 16.372539-15.553912 36.326571-24.45648 54.541021-24.45648 8.697911 0 20.772659 2.046567 29.675227 12.074748 8.288598 9.41421 11.256121 23.330868 8.288598 39.191766-3.274508 17.395823-13.098031 34.586989-27.730988 48.401319-16.372539 15.553912-36.326571 24.45648-54.745678 24.45648-8.697911 0-20.772659-2.046567-29.572899-12.074748C321.873888 133.026881 319.008694 119.110223 321.976217 103.249325zM330.367143 434.997901c1.22794 1.637254 2.251224 3.479165 3.069851 5.423404C332.618367 438.477066 331.595083 436.737484 330.367143 434.997901zM587.620666 735.127011c-15.860897 10.232837-42.977915 28.037973-70.094934 48.196662-6.753672 5.01409-13.098031 9.823524-18.930748 14.4283 10.744479-11.358449 17.498151-18.419107 17.60048-18.521435 3.888478-3.990806 6.549016-9.004897 7.776956-14.530629 0.306985-1.637254 8.80024-39.703408 14.530629-86.467473 3.683821-29.982212 5.321075-56.48526 5.01409-79.509144 12.074748-1.841911 24.558809-4.093135 36.633557-6.446687C588.439292 647.124613 588.234636 707.293694 587.620666 735.127011z" p-id="3508"></path><path d="M801.282302 199.64265l-2.251224-49.833916c-1.023284 1.432597-1.330269 2.762866-0.818627 4.707105-0.306985 0.511642-0.920955 0.818627-1.534926 0.511642-1.023284-1.432597-2.046567-2.353553-4.297792-2.660538-1.739582 1.637254-1.944239 2.967523-1.637254 4.911762-0.306985 0.511642-0.920955 0.818627-1.534926 0.511642-1.023284-1.432597-1.944239-2.251224-4.195463-2.660538-1.637254 1.534926-1.841911 2.865194-1.534926 4.809433-0.306985 0.511642-0.920955 0.818627-1.534926 0.511642-1.023284-1.432597-2.046567-2.353553-4.297792-2.660538-1.739582 1.637254-1.944239 2.967523-1.637254 4.911762-0.306985 0.511642-0.920955 0.818627-1.534926 0.511642-1.023284-1.432597-1.944239-2.353553-4.297792-2.660538-1.739582 1.637254-1.944239 2.967523-1.637254 4.911762-0.306985 0.511642-0.920955 0.818627-1.534926 0.511642-1.023284-1.432597-2.046567-2.353553-4.297792-2.660538-1.739582 1.637254-1.944239 2.967523-1.637254 4.911762-0.306985 0.511642-0.920955 0.818627-1.534926 0.511642-1.023284-1.432597-2.046567-2.455881-4.604777-2.660538-0.102328 0-0.204657-0.102328-0.204657-0.102328l-0.306985 0.102328 30.903168 39.498751L801.282302 199.64265z" p-id="3509"></path><path d="M787.877286 208.647547l0.409313 1.023284c1.637254 4.195463 6.344359 6.242031 10.539822 4.707105 4.195463-1.637254 6.242031-6.344359 4.707105-10.539822l-0.306985-0.818627c-0.204657-0.511642-0.818627-0.818627-1.432597-0.61397l-13.302688 4.809433C787.877286 207.419606 787.672629 208.033576 787.877286 208.647547z" p-id="3510"></path></svg>