<?xml version="1.0" standalone="no"?><!DOCTYPE svg PUBLIC "-//W3C//DTD SVG 1.1//EN" "http://www.w3.org/Graphics/SVG/1.1/DTD/svg11.dtd"><svg t="1501684684656" class="icon" style="" viewBox="0 0 1024 1024" version="1.1" xmlns="http://www.w3.org/2000/svg" p-id="2628" xmlns:xlink="http://www.w3.org/1999/xlink" width="32" height="32"><defs><style type="text/css"></style></defs><path d="M419.5328 129.70496c0-51.92704 41.9072-94.01856 93.58848-94.01856 51.70176 0 93.59872 42.09152 93.59872 94.01856 0 51.92192-41.9072 94.00832-93.59872 94.00832C461.44 223.71328 419.5328 181.62688 419.5328 129.70496zM491.9808 397.3376c0 0 39.2704 58.37824 93.61408 94.76608 54.34368 36.39296 125.29152 56.10496 146.43712 21.23264 21.13536-34.87744-12.0064-67.40992-107.19232-107.66336-57.36448-24.25856-64.91136-142.53568-78.49984-159.21664-11.62752-14.27968-66.41664-33.36192-99.63008-19.71712-33.20832 13.64992-39.24992 33.36192-49.8176 74.30144-3.8912 15.08864-8.54528 32.47104-13.77792 51.60448 8.12032-33.69984 13.77792-59.1872 13.77792-59.1872s12.07296-69.75488-58.88-81.88416c-70.94784-12.1344-93.5936 84.92032-104.16128 112.20992-10.56256 27.29984-43.776 121.31328-7.54688 163.76832 36.22912 42.45504 90.57792 56.10496 110.20288 22.74304 1.57184-2.67264 3.28704-6.31296 5.09952-10.74688-48.384 167.73632-106.49088 361.15968-116.80768 397.4144-15.09376 53.07392-3.03104 56.86272 18.10432 64.45056 21.13536 7.5776 60.38528-18.19648 81.51552-66.71872 21.13536-48.52224 105.6768-266.86464 114.73408-274.4576 9.05728-7.5776 78.5152 31.07328 107.19744 68.992 28.68736 37.9136 19.63008 74.30656 13.58336 119.79264-6.0416 45.4912-30.18752 159.21152 24.16128 157.696 54.33856-1.51552 64.90624-47.00672 80.00512-150.11328 15.08864-103.11168 40.76544-127.37536-18.11456-180.43904-58.87488-53.0688-166.07744-146.3296-163.05664-163.00544C485.94432 456.47872 491.9808 397.34272 491.9808 397.3376L491.9808 397.3376zM846.80704 264.96c-8.99584-1.69984-17.66912 4.25472-19.36896 13.29664l-131.328 700.544c-1.69984 9.05216 4.224 17.75616 13.22496 19.46112 1.03936 0.19968 2.06848 0.29184 3.08736 0.29184 7.82848 0 14.78656-5.57568 16.29184-13.57824l131.328-700.54912C861.73184 275.3792 855.81312 266.66496 846.80704 264.96L846.80704 264.96z" p-id="2629"></path></svg>