<?xml version="1.0" standalone="no"?><!DOCTYPE svg PUBLIC "-//W3C//DTD SVG 1.1//EN" "http://www.w3.org/Graphics/SVG/1.1/DTD/svg11.dtd"><svg t="1501685030252" class="icon" style="" viewBox="0 0 1126 1024" version="1.1" xmlns="http://www.w3.org/2000/svg" p-id="4056" xmlns:xlink="http://www.w3.org/1999/xlink" width="35.1875" height="32"><defs><style type="text/css"></style></defs><path d="M0 102.4h1024v665.6H0z" fill="#FFFFFF" p-id="4057"></path><path d="M51.2 665.6h699.733333v51.2H51.2z" fill="#EAEAEA" p-id="4058"></path><path d="M750.933333 1006.933333h358.4V426.666667H750.933333z" fill="#FFFFFF" p-id="4059"></path><path d="M904.533333 887.466667h51.2v51.2h-51.2z" fill="#242424" p-id="4060"></path><path d="M1024 426.666667V102.4H0v665.6h494.933333v85.333333H281.6c-13.653333 0-25.6 11.946667-25.6 25.6s11.946667 25.6 25.6 25.6h460.8c3.413333 0 5.12 0 8.533333-1.706666V1006.933333h358.4V426.666667h-85.333333z m34.133333 51.2v51.2H802.133333v-51.2h256zM750.933333 855.04c-3.413333-1.706667-5.12-1.706667-8.533333-1.706667H546.133333v-85.333333h204.8v87.04z m0-138.24H51.2v-51.2h699.733333v51.2z m0-102.4H51.2V153.6h921.6v273.066667H750.933333v187.733333z m307.2 341.333333H802.133333v-102.4h256v102.4z m0-153.6H802.133333V580.266667h256v221.866666z" fill="#242424" p-id="4061"></path></svg>