<?xml version="1.0" standalone="no"?><!DOCTYPE svg PUBLIC "-//W3C//DTD SVG 1.1//EN" "http://www.w3.org/Graphics/SVG/1.1/DTD/svg11.dtd"><svg t="1501684918917" class="icon" style="" viewBox="0 0 1024 1024" version="1.1" xmlns="http://www.w3.org/2000/svg" p-id="1007" xmlns:xlink="http://www.w3.org/1999/xlink" width="32" height="32"><defs><style type="text/css"></style></defs><path d="M999.48544 278.49728l-15.27808 0c-11.47904 0-20.86912-9.37984-20.86912-20.85888l0-40.81664c0.0512-11.84768-8.15104-21.66784-19.73248-23.86944-158.09536-30.24896-301.81376-29.70624-411.21792 47.40096-19.51744 13.73184-21.34016 13.62944-40.59136 0-109.568-77.0048-253.29664-77.64992-411.38176-47.40096-11.53024 2.2016-19.73248 12.01152-19.73248 23.86944l0 40.81664c0 11.47904-9.33888 20.85888-20.86912 20.85888L24.5248 278.49728c-13.4144 0-24.29952 10.93632-24.29952 24.35072L0.39936 791.4496c0 13.4144 10.93632 24.35072 24.34048 24.35072l412.88704 0c7.66976 0 13.89568 6.21568 13.89568 13.83424 0 8.26368 5.41696 14.96064 13.93664 14.96064l93.10208 0c7.72096 0 13.93664-6.26688 13.93664-13.89568 0-8.26368 5.36576-14.8992 13.94688-14.8992l412.88704 0c13.34272 0 24.29952-10.93632 24.29952-24.35072l0.2048-488.6016C1023.83616 289.4336 1012.89984 278.49728 999.48544 278.49728zM477.83936 768.34816c-97.3824-60.86656-224.32768-67.7888-359.6288-45.2608-13.83424 2.304-26.28608-8.26368-26.28608-22.26176L91.78112 239.34976c0-11.96032 8.46848-21.98528 20.2752-24.03328 141.08672-23.7568 271.03232-14.41792 365.63968 57.10848 12.11392 9.1136 18.60608 22.21056 18.60608 37.38624l0.16384 448.16384C496.45568 767.6416 486.05184 773.43744 477.83936 768.34816zM932.13696 700.8256c0 13.99808-12.4416 24.56576-26.33728 22.26176-135.30112-22.528-262.1952-15.60576-359.5776 45.2608-8.15104 5.08928-18.65728-0.70656-18.65728-10.36288l0.2048-448.16384c0-15.17568 6.44096-28.27264 18.56512-37.38624 94.64832-71.5264 224.54272-80.86528 365.63968-57.10848 11.84768 2.048 20.31616 12.07296 20.31616 24.03328L932.13696 700.8256z" p-id="1008"></path></svg>